REM DIRINDEX 1\2,1\4,1\3\5,1\3\6
REM DIRNAME folder01,folder02,folder03,folder04,folder05,folder06
TITLE ""
FILE "Track15.mp3" MP3
  TRACK 01 AUDIO
    TITLE "4:cjc035_0492"
    INDEX 01 00:00:00
  TRACK 02 AUDIO
    TITLE "5:cjc035_0493"
    INDEX 01 00:09:69
  TRACK 03 AUDIO
    TITLE "6:cjc035_0494"
    INDEX 01 00:11:44
  TRACK 04 AUDIO
    TITLE "5:cjc035_0495"
    INDEX 01 00:13:28
  TRACK 05 AUDIO
    TITLE "6:cjc035_0496"
    INDEX 01 00:14:66
  TRACK 06 AUDIO
    TITLE "5:cjc035_0497"
    INDEX 01 00:16:46
  TRACK 07 AUDIO
    TITLE "6:cjc035_0498"
    INDEX 01 00:18:23
  TRACK 08 AUDIO
    TITLE "5:cjc035_0499"
    INDEX 01 00:20:04
  TRACK 09 AUDIO
    TITLE "6:cjc035_0500"
    INDEX 01 00:21:70
  TRACK 10 AUDIO
    TITLE "5:cjc035_0501"
    INDEX 01 00:23:53
  TRACK 11 AUDIO
    TITLE "6:cjc035_0502"
    INDEX 01 00:25:37
  TRACK 12 AUDIO
    TITLE "5:cjc035_0503"
    INDEX 01 00:27:36
  TRACK 13 AUDIO
    TITLE "6:cjc035_0504"
    INDEX 01 00:29:17
  TRACK 14 AUDIO
    TITLE "5:cjc035_0505"
    INDEX 01 00:31:06
  TRACK 15 AUDIO
    TITLE "6:cjc035_0506"
    INDEX 01 00:32:64
  TRACK 16 AUDIO
    TITLE "5:cjc035_0507"
    INDEX 01 00:34:47
  TRACK 17 AUDIO
    TITLE "6:cjc035_0508"
    INDEX 01 00:36:35
  TRACK 18 AUDIO
    TITLE "5:cjc035_0509"
    INDEX 01 00:38:30
  TRACK 19 AUDIO
    TITLE "6:cjc035_0510"
    INDEX 01 00:40:09
  TRACK 20 AUDIO
    TITLE "5:cjc035_0511"
    INDEX 01 00:41:69
  TRACK 21 AUDIO
    TITLE "6:cjc035_0512"
    INDEX 01 00:43:50
  TRACK 22 AUDIO
    TITLE "5:cjc035_0513"
    INDEX 01 00:45:30
  TRACK 23 AUDIO
    TITLE "6:cjc035_0514"
    INDEX 01 00:47:17
  TRACK 24 AUDIO
    TITLE "5:cjc035_0515"
    INDEX 01 00:49:10
  TRACK 25 AUDIO
    TITLE "6:cjc035_0516"
    INDEX 01 00:50:68
  TRACK 26 AUDIO
    TITLE "5:cjc035_0517"
    INDEX 01 00:52:49
  TRACK 27 AUDIO
    TITLE "6:cjc035_0518"
    INDEX 01 00:54:30
  TRACK 28 AUDIO
    TITLE "5:cjc035_0519"
    INDEX 01 00:56:18
  TRACK 29 AUDIO
    TITLE "6:cjc035_0520"
    INDEX 01 00:58:03
  TRACK 30 AUDIO
    TITLE "5:cjc035_0521"
    INDEX 01 00:59:71
  TRACK 31 AUDIO
    TITLE "6:cjc035_0522"
    INDEX 01 01:01:54
  TRACK 32 AUDIO
    TITLE "5:cjc035_0523"
    INDEX 01 01:03:45
  TRACK 33 AUDIO
    TITLE "6:cjc035_0524"
    INDEX 01 01:05:30
  TRACK 34 AUDIO
    TITLE "5:cjc035_0525"
    INDEX 01 01:07:27
  TRACK 35 AUDIO
    TITLE "6:cjc035_0526"
    INDEX 01 01:09:18
  TRACK 36 AUDIO
    TITLE "5:cjc035_0527"
    INDEX 01 01:10:73
  TRACK 37 AUDIO
    TITLE "6:cjc035_0528"
    INDEX 01 01:12:66
  TRACK 38 AUDIO
    TITLE "5:cjc035_0529"
    INDEX 01 01:14:49
  TRACK 39 AUDIO
    TITLE "6:cjc035_0530"
    INDEX 01 01:16:40
  TRACK 40 AUDIO
    TITLE "5:cjc035_0531"
    INDEX 01 01:18:29
  TRACK 41 AUDIO
    TITLE "6:cjc035_0532"
    INDEX 01 01:20:12
  TRACK 42 AUDIO
    TITLE "5:cjc035_0533"
    INDEX 01 01:21:74
  TRACK 43 AUDIO
    TITLE "6:cjc035_0534"
    INDEX 01 01:23:52
  TRACK 44 AUDIO
    TITLE "5:cjc035_0535"
    INDEX 01 01:25:29
  TRACK 45 AUDIO
    TITLE "6:cjc035_0536"
    INDEX 01 01:27:12
  TRACK 46 AUDIO
    TITLE "5:cjc035_0537"
    INDEX 01 01:28:63
  TRACK 47 AUDIO
    TITLE "6:cjc035_0538"
    INDEX 01 01:30:48
  TRACK 48 AUDIO
    TITLE "5:cjc035_0539"
    INDEX 01 01:32:41
  TRACK 49 AUDIO
    TITLE "6:cjc035_0540"
    INDEX 01 01:34:36
  TRACK 50 AUDIO
    TITLE "5:cjc035_0541"
    INDEX 01 01:36:19
  TRACK 51 AUDIO
    TITLE "6:cjc035_0542"
    INDEX 01 01:38:08
  TRACK 52 AUDIO
    TITLE "5:cjc035_0543"
    INDEX 01 01:39:63
  TRACK 53 AUDIO
    TITLE "6:cjc035_0544"
    INDEX 01 01:41:50
  TRACK 54 AUDIO
    TITLE "5:cjc035_0545"
    INDEX 01 01:43:35
  TRACK 55 AUDIO
    TITLE "6:cjc035_0546"
    INDEX 01 01:45:24
  TRACK 56 AUDIO
    TITLE "5:cjc035_0547"
    INDEX 01 01:47:23
  TRACK 57 AUDIO
    TITLE "6:cjc035_0548"
    INDEX 01 01:49:20
  TRACK 58 AUDIO
    TITLE "5:cjc035_0549"
    INDEX 01 01:51:13
  TRACK 59 AUDIO
    TITLE "6:cjc035_0550"
    INDEX 01 01:53:02
  TRACK 60 AUDIO
    TITLE "5:cjc035_0551"
    INDEX 01 01:55:09
  TRACK 61 AUDIO
    TITLE "6:cjc035_0552"
    INDEX 01 01:57:06
  TRACK 62 AUDIO
    TITLE "5:cjc035_0553"
    INDEX 01 01:59:08
  TRACK 63 AUDIO
    TITLE "6:cjc035_0554"
    INDEX 01 02:00:65
  TRACK 64 AUDIO
    TITLE "5:cjc035_0555"
    INDEX 01 02:02:54
  TRACK 65 AUDIO
    TITLE "6:cjc035_0556"
    INDEX 01 02:04:37
  TRACK 66 AUDIO
    TITLE "5:cjc035_0557"
    INDEX 01 02:06:18
  TRACK 67 AUDIO
    TITLE "6:cjc035_0558"
    INDEX 01 02:07:73
  TRACK 68 AUDIO
    TITLE "5:cjc035_0559"
    INDEX 01 02:09:73
  TRACK 69 AUDIO
    TITLE "6:cjc035_0560"
    INDEX 01 02:11:63
  TRACK 70 AUDIO
    TITLE "5:cjc035_0561"
    INDEX 01 02:13:52
  TRACK 71 AUDIO
    TITLE "6:cjc035_0562"
    INDEX 01 02:15:49
  TRACK 72 AUDIO
    TITLE "5:cjc035_0563"
    INDEX 01 02:17:38
  TRACK 73 AUDIO
    TITLE "6:cjc035_0564"
    INDEX 01 02:19:09
  TRACK 74 AUDIO
    TITLE "5:cjc035_0565"
    INDEX 01 02:20:56
  TRACK 75 AUDIO
    TITLE "6:cjc035_0566"
    INDEX 01 02:22:39
  TRACK 76 AUDIO
    TITLE "5:cjc035_0567"
    INDEX 01 02:24:16
  TRACK 77 AUDIO
    TITLE "6:cjc035_0568"
    INDEX 01 02:25:72
  TRACK 78 AUDIO
    TITLE "5:cjc035_0569"
    INDEX 01 02:27:54
  TRACK 79 AUDIO
    TITLE "6:cjc035_0570"
    INDEX 01 02:29:31
  TRACK 80 AUDIO
    TITLE "5:cjc035_0571"
    INDEX 01 02:31:14
  TRACK 81 AUDIO
    TITLE "6:cjc035_0572"
    INDEX 01 02:32:72
  TRACK 82 AUDIO
    TITLE "5:cjc035_0573"
    INDEX 01 02:34:52
  TRACK 83 AUDIO
    TITLE "6:cjc035_0574"
    INDEX 01 02:36:57
  TRACK 84 AUDIO
    TITLE "5:cjc035_0575"
    INDEX 01 02:38:57
  TRACK 85 AUDIO
    TITLE "6:cjc035_0576"
    INDEX 01 02:40:39
  TRACK 86 AUDIO
    TITLE "5:cjc035_0577"
    INDEX 01 02:42:24
  TRACK 87 AUDIO
    TITLE "6:cjc035_0578"
    INDEX 01 02:44:01
  TRACK 88 AUDIO
    TITLE "5:cjc035_0579"
    INDEX 01 02:45:56
  TRACK 89 AUDIO
    TITLE "6:cjc035_0580"
    INDEX 01 02:47:39
  TRACK 90 AUDIO
    TITLE "5:cjc035_0581"
    INDEX 01 02:49:16
  TRACK 91 AUDIO
    TITLE "6:cjc035_0582"
    INDEX 01 02:50:70
  TRACK 92 AUDIO
    TITLE "5:cjc035_0583"
    INDEX 01 02:52:60
  TRACK 93 AUDIO
    TITLE "6:cjc035_0584"
    INDEX 01 02:54:45
  TRACK 94 AUDIO
    TITLE "5:cjc035_0585"
    INDEX 01 02:56:51
  TRACK 95 AUDIO
    TITLE "6:cjc035_0586"
    INDEX 01 02:58:35
  TRACK 96 AUDIO
    TITLE "5:cjc035_0587"
    INDEX 01 03:00:24
  TRACK 97 AUDIO
    TITLE "6:cjc035_0588"
    INDEX 01 03:01:70
  TRACK 98 AUDIO
    TITLE "5:cjc035_0589"
    INDEX 01 03:03:50
  TRACK 99 AUDIO
    TITLE "6:cjc035_0590"
    INDEX 01 03:05:37
  TRACK 100 AUDIO
    TITLE "5:cjc035_0591"
    INDEX 01 03:07:36
  TRACK 101 AUDIO
    TITLE "6:cjc035_0592"
    INDEX 01 03:09:23
  TRACK 102 AUDIO
    TITLE "5:cjc035_0593"
    INDEX 01 03:11:06
  TRACK 103 AUDIO
    TITLE "6:cjc035_0594"
    INDEX 01 03:12:66
  TRACK 104 AUDIO
    TITLE "5:cjc035_0595"
    INDEX 01 03:14:53
  TRACK 105 AUDIO
    TITLE "6:cjc035_0596"
    INDEX 01 03:16:40
  TRACK 106 AUDIO
    TITLE "5:cjc035_0597"
    INDEX 01 03:18:24
  TRACK 107 AUDIO
    TITLE "6:cjc035_0598"
    INDEX 01 03:20:11
  TRACK 108 AUDIO
    TITLE "5:cjc035_0599"
    INDEX 01 03:21:73
  TRACK 109 AUDIO
    TITLE "6:cjc035_0600"
    INDEX 01 03:23:62
  TRACK 110 AUDIO
    TITLE "5:cjc035_0601"
    INDEX 01 03:25:53
  TRACK 111 AUDIO
    TITLE "6:cjc035_0602"
    INDEX 01 03:27:42
  TRACK 112 AUDIO
    TITLE "5:cjc035_0603"
    INDEX 01 03:29:37
  TRACK 113 AUDIO
    TITLE "6:cjc035_0604"
    INDEX 01 03:31:20
  TRACK 114 AUDIO
    TITLE "5:cjc035_0605"
    INDEX 01 03:33:13
  TRACK 115 AUDIO
    TITLE "6:cjc035_0606"
    INDEX 01 03:35:01
  TRACK 116 AUDIO
    TITLE "5:cjc035_0607"
    INDEX 01 03:36:59
  TRACK 117 AUDIO
    TITLE "6:cjc035_0608"
    INDEX 01 03:38:52
  TRACK 118 AUDIO
    TITLE "5:cjc035_0609"
    INDEX 01 03:40:51
  TRACK 119 AUDIO
    TITLE "6:cjc035_0610"
    INDEX 01 03:42:38
  TRACK 120 AUDIO
    TITLE "5:cjc035_0611"
    INDEX 01 03:44:21
  TRACK 121 AUDIO
    TITLE "6:cjc035_0612"
    INDEX 01 03:45:73
  TRACK 122 AUDIO
    TITLE "5:cjc035_0613"
    INDEX 01 03:47:61
  TRACK 123 AUDIO
    TITLE "6:cjc035_0614"
    INDEX 01 03:49:40
  TRACK 124 AUDIO
    TITLE "5:cjc035_0615"
    INDEX 01 03:51:19
  TRACK 125 AUDIO
    TITLE "6:cjc035_0616"
    INDEX 01 03:53:04
  TRACK 126 AUDIO
    TITLE "5:cjc035_0617"
    INDEX 01 03:54:51
  TRACK 127 AUDIO
    TITLE "6:cjc035_0618"
    INDEX 01 03:56:40
  TRACK 128 AUDIO
    TITLE "5:cjc035_0619"
    INDEX 01 03:58:39
  TRACK 129 AUDIO
    TITLE "6:cjc035_0620"
    INDEX 01 04:00:18
  TRACK 130 AUDIO
    TITLE "5:cjc035_0621"
    INDEX 01 04:02:03
  TRACK 131 AUDIO
    TITLE "6:cjc035_0622"
    INDEX 01 04:03:60
  TRACK 132 AUDIO
    TITLE "5:cjc035_0623"
    INDEX 01 04:05:37
  TRACK 133 AUDIO
    TITLE "6:cjc035_0624"
    INDEX 01 04:07:22
  TRACK 134 AUDIO
    TITLE "5:cjc035_0625"
    INDEX 01 04:09:15
  TRACK 135 AUDIO
    TITLE "6:cjc035_0626"
    INDEX 01 04:10:67
  TRACK 136 AUDIO
    TITLE "5:cjc035_0627"
    INDEX 01 04:12:49
  TRACK 137 AUDIO
    TITLE "6:cjc035_0628"
    INDEX 01 04:14:30
  TRACK 138 AUDIO
    TITLE "5:cjc035_0629"
    INDEX 01 04:16:07
  TRACK 139 AUDIO
    TITLE "6:cjc035_0630"
    INDEX 01 04:17:56
  TRACK 140 AUDIO
    TITLE "5:cjc035_0631"
    INDEX 01 04:19:31
  TRACK 141 AUDIO
    TITLE "6:cjc035_0632"
    INDEX 01 04:21:07
  TRACK 142 AUDIO
    TITLE "5:cjc035_0633"
    INDEX 01 04:22:49
  TRACK 143 AUDIO
    TITLE "6:cjc035_0634"
    INDEX 01 04:24:30
  TRACK 144 AUDIO
    TITLE "0:"
    INDEX 01 04:26:12
